<svg id="Capa_1" data-name="Capa 1" xmlns="http://www.w3.org/2000/svg" xmlns:xlink="http://www.w3.org/1999/xlink" viewBox="0 0 159 159"><defs><style>.cls-1{fill:#5c72b5;}.cls-2{fill:url(#Degradado_sin_nombre_93);}.cls-3{fill:url(#Nueva_muestra_de_degradado_1);}</style><linearGradient id="Degradado_sin_nombre_93" x1="71.13" y1="137.06" x2="130.4" y2="102.26" gradientUnits="userSpaceOnUse"><stop offset="0" stop-color="#4859a4"/><stop offset="0.32" stop-color="#4758a1"/><stop offset="0.53" stop-color="#425398"/><stop offset="0.71" stop-color="#3b4b89"/><stop offset="0.87" stop-color="#303f74"/><stop offset="1" stop-color="#25335d"/></linearGradient><linearGradient id="Nueva_muestra_de_degradado_1" x1="17.31" y1="66.21" x2="76.53" y2="25.27" gradientUnits="userSpaceOnUse"><stop offset="0" stop-color="#4859a4"/><stop offset="0" stop-color="#25335d"/><stop offset="0.24" stop-color="#324178"/><stop offset="0.52" stop-color="#3e4e90"/><stop offset="0.79" stop-color="#45569f"/><stop offset="1" stop-color="#4859a4"/></linearGradient></defs><path class="cls-1" d="M7.25,43.65v72l72-36Z"/><path class="cls-1" d="M35.05,129c5.81-2.86,31.82-16,44.21-22.11,0,6.92,0,29.46,0,44.46"/><path class="cls-2" d="M79.26,106.89,106,93c15.35,7.53,30.23,14.71,45.23,22.37-16.48,8.3-63.78,31.82-72,35.95"/><path class="cls-1" d="M79.25,79.65c24,12,48,23.75,72,35.75,0-24,.5-47.75.5-71.75"/><path class="cls-1" d="M79.25,52.9c15-7.33,30.25-15.29,45.25-22.62-15-7.67-30.25-15-45.25-22.63"/><path class="cls-3" d="M7.25,43.65c23.67-11.66,48.33-24.33,72-36V52.9c-1.43.71-22.48,11-27,13.25"/></svg>