<svg id="Capa_1" data-name="Capa 1" xmlns="http://www.w3.org/2000/svg" xmlns:xlink="http://www.w3.org/1999/xlink" viewBox="0 0 159 159"><defs><style>.cls-1{fill:#5c72b5;}.cls-2{fill:#4858a4;}.cls-3{fill:url(#Degradado_sin_nombre_41);}.cls-4{fill:#4da4d6;}.cls-5{fill:url(#Nueva_muestra_de_degradado_1);}</style><linearGradient id="Degradado_sin_nombre_41" x1="80.15" y1="136.34" x2="133.56" y2="100.41" gradientUnits="userSpaceOnUse"><stop offset="0" stop-color="#2c7fb6"/><stop offset="0.27" stop-color="#2c7db3"/><stop offset="0.49" stop-color="#2a77a9"/><stop offset="0.69" stop-color="#286c98"/><stop offset="0.87" stop-color="#265d81"/><stop offset="1" stop-color="#234f6b"/></linearGradient><linearGradient id="Nueva_muestra_de_degradado_1" x1="18.03" y1="67.3" x2="77.25" y2="26.36" gradientUnits="userSpaceOnUse"><stop offset="0" stop-color="#4859a4"/><stop offset="0" stop-color="#25335d"/><stop offset="0.24" stop-color="#324178"/><stop offset="0.52" stop-color="#3e4e90"/><stop offset="0.79" stop-color="#45569f"/><stop offset="1" stop-color="#4859a4"/></linearGradient></defs><path class="cls-1" d="M8,44.74v72l72-36Z"/><path class="cls-2" d="M35.77,130.09c5.81-2.86,31.82-16,44.2-22.11,0,6.92,0,29.46,0,44.46"/><path class="cls-3" d="M80,108l26.76-13.86c15.35,7.52,30.24,14.71,45.24,22.37-16.48,8.3-63.78,31.82-72,36"/><path class="cls-4" d="M80,80.74c24,12,48,23.75,72,35.75,0-24,.5-47.75.5-71.75"/><path class="cls-4" d="M80,54c15-7.33,30.25-15.29,45.25-22.62C110.22,23.7,95,16.41,80,8.74"/><path class="cls-5" d="M8,44.74c23.66-11.66,48.33-24.33,72-36V54c-1.43.71-22.48,11-27,13.25"/></svg>