<svg id="Capa_1" data-name="Capa 1" xmlns="http://www.w3.org/2000/svg" xmlns:xlink="http://www.w3.org/1999/xlink" viewBox="0 0 159 159"><defs><style>.cls-1{fill:#fff;}.cls-2{fill:#9c9b9b;}.cls-3{fill:url(#Degradado_sin_nombre_80);}.cls-4{fill:url(#Degradado_sin_nombre_84);}</style><linearGradient id="Degradado_sin_nombre_80" x1="82.59" y1="129.22" x2="145.59" y2="94.36" gradientUnits="userSpaceOnUse"><stop offset="0" stop-color="#e8e8e8"/><stop offset="0.18" stop-color="#ddd"/><stop offset="0.51" stop-color="#bfc0c0"/><stop offset="0.94" stop-color="#909191"/><stop offset="1" stop-color="#888989"/></linearGradient><linearGradient id="Degradado_sin_nombre_84" x1="17.46" y1="63.58" x2="79.38" y2="26.85" gradientUnits="userSpaceOnUse"><stop offset="0" stop-color="#4859a4"/><stop offset="0" stop-color="#999"/><stop offset="0.44" stop-color="#bebebe"/><stop offset="1" stop-color="#e8e8e8"/></linearGradient></defs><path class="cls-1" d="M7.25,43.65v72l72-36Z"/><path class="cls-2" d="M35.05,129c5.81-2.86,31.82-16,44.21-22.11,0,6.92,0,29.46,0,44.46"/><path class="cls-3" d="M79.26,106.89,106,93c15.35,7.53,30.23,14.71,45.23,22.37-16.48,8.3-63.78,31.82-72,35.95"/><path class="cls-1" d="M79.25,79.65c24,12,48,23.75,72,35.75,0-24,.5-47.75.5-71.75"/><path class="cls-2" d="M79.25,52.9c15-7.33,30.25-15.29,45.25-22.62-15-7.67-30.25-15-45.25-22.63"/><path class="cls-4" d="M7.25,43.65c23.67-11.66,48.33-24.33,72-36V52.9c-1.43.71-22.48,11-27,13.25"/></svg>